<svg width="640" height="280" viewBox="0 0 640 280" xmlns="http://www.w3.org/2000/svg" font-family="-apple-system, Segoe UI, Roboto, sans-serif">
  <rect width="640" height="280" rx="16" fill="#0d0d10"/>

  <!-- Apple horizontal (reference) -->
  <text x="60" y="48" fill="#8a8a92" font-size="13" font-weight="600">Apple — horizontal</text>
  <circle cx="60" cy="90" r="9" fill="#FF5F57"/>
  <circle cx="88" cy="90" r="9" fill="#FEBC2E"/>
  <circle cx="116" cy="90" r="9" fill="#28C840"/>

  <!-- Vertical — window (capsule) -->
  <text x="300" y="48" fill="#8a8a92" font-size="13" font-weight="600">Vertical — window</text>
  <rect x="320" y="70" rx="20" width="40" height="120" fill="#1b1b20" stroke="#2c2c33"/>
  <circle cx="340" cy="92"  r="9" fill="#FF5F57"/>
  <circle cx="340" cy="130" r="9" fill="#FEBC2E"/>
  <circle cx="340" cy="168" r="9" fill="#28C840"/>

  <!-- Vertical — tabs -->
  <text x="430" y="48" fill="#8a8a92" font-size="13" font-weight="600">Vertical — tabs</text>
  <!-- tab 1 (active) -->
  <rect x="430" y="74" rx="9" width="150" height="34" fill="#2a2546"/>
  <circle cx="446" cy="84" r="5" fill="#FF5F57"/>
  <circle cx="446" cy="98" r="5" fill="#28C840"/>
  <text x="462" y="95" fill="#e8e8ee" font-size="12">index.html</text>
  <!-- tab 2 -->
  <rect x="430" y="116" rx="9" width="150" height="34" fill="#19191e"/>
  <circle cx="446" cy="133" r="5" fill="#FF5F57"/>
  <text x="462" y="137" fill="#b9b9c2" font-size="12">styles.css</text>
  <!-- tab 3 -->
  <rect x="430" y="158" rx="9" width="150" height="34" fill="#19191e"/>
  <circle cx="446" cy="175" r="5" fill="#FF5F57"/>
  <text x="462" y="179" fill="#b9b9c2" font-size="12">app.js</text>

  <text x="60" y="240" fill="#5f5f68" font-size="12">VerticalSemaphore · SwiftUI · macOS / iOS · MIT · Brasico</text>
</svg>
